<?xml version="1.0" encoding="utf-8"?>
<!-- Generator: Adobe Illustrator 18.0.0, SVG Export Plug-In . SVG Version: 6.00 Build 0)  -->
<!DOCTYPE svg PUBLIC "-//W3C//DTD SVG 1.1//EN" "http://www.w3.org/Graphics/SVG/1.1/DTD/svg11.dtd">
<svg version="1.1" id="Layer_1" xmlns="http://www.w3.org/2000/svg" xmlns:xlink="http://www.w3.org/1999/xlink" x="0px" y="0px"
	 viewBox="0 0 841.9 595.3" enable-background="new 0 0 841.9 595.3" xml:space="preserve">
<g id="h5w7Au_1_">
	<g>
		<path stroke="#000000" stroke-miterlimit="10" d="M818.4,125.6c-1.1,10.5-2,19.8-2.9,29.2c-0.6,6.5-1.2,12.9-1.8,19.4
			c-1,10.6-2.2,21.2-3.2,31.8c-0.6,6.6-1.1,13.2-1.7,19.8c-1,10.3-2.2,20.7-3.2,31c-0.6,6.5-1.2,12.9-1.7,19.4
			c-1.1,13-2,26-3.1,38.9c-1.1,12.8-2.3,25.5-3.5,38.3c-0.3,3.7-0.6,7.3-0.9,11c-0.3,3.1-1.5,5.2-4.5,7
			c-39.3,22.4-78.4,45-117.6,67.6c-2.3,1.3-4,1.2-6.3,0.1c-14.4-7.1-29-14-43.4-21.3c-3.9-2-6.8-1.5-10.5,0.5
			c-49.3,27-98.6,53.9-147.9,80.9c-3.1,1.7-5.4,1.7-8.4-0.1c-22.3-13.1-44.8-25.9-67.2-38.9c-2.4-1.4-4.2-1.3-6.7-0.1
			c-51.9,26.3-103.9,52.5-155.8,78.9c-2.9,1.5-4.7,1.2-7.2-0.6C167.8,501.9,114.7,465.4,61.4,429c-4-2.7-2.7-6.6-3.1-9.9
			c-2.5-17.1-4.5-34.2-6.6-51.3c-1.1-8.9-2.3-17.8-3.3-26.7c-1.7-14.9-3.3-29.8-5-44.7c-1.4-12.1-2.6-24.1-4.2-36.2
			c-1.8-14.2-3.8-28.3-5.6-42.5c-1.5-12-2.8-24.1-4.2-36.2c-0.2-1.9-0.6-3.9-1-6.6c7.1,3.7,13.3,7.1,19.7,10.4
			c49.8,25.9,99.6,51.8,149.3,77.8c4,2.1,7.2,2.2,11.3,0.6c55.7-21.2,111.5-42.1,167.3-63.2c3.4-1.3,6.4-1.3,9.7,0.2
			c23.6,10.3,47.2,20.5,70.8,30.9c3.7,1.6,6.9,1.3,10.5-0.2c41.9-17.5,83.9-34.8,125.8-52.2c9.9-4.1,19.9-8,29.7-12.3
			c5.2-2.3,10.1-2.6,15.4-0.7c14.9,5.2,29.9,10.3,44.8,15.6c3.1,1.1,5.8,1.1,8.9-0.2c40-17.5,80.1-34.8,120.1-52.3
			C813.7,128.5,815.4,127.3,818.4,125.6z"/>
	</g>
</g>
<g id="_x37_p5R7o_1_">
	<g>
		<path fill="none" stroke="#000000" stroke-width="2" stroke-linecap="round" stroke-linejoin="round" stroke-miterlimit="10" d="
			M224.6,538.3c6.2-1.5,11.6-5,17.1-7.9c21.9-11.3,43.9-22.1,66-33.1c20.4-10.1,40.7-20.4,61-30.7c5.1-2.6,10.1-5.1,15.1-7.8
			c2.1-1.1,3.9-1.4,6.2,0c10.4,6.2,21,12.1,31.5,18.1c10.5,6,21,12,31.5,18c1,0.5,2,1,2.9,1.7c3.4,2.6,7,2.7,10.6,0.8
			c12.9-6.9,25.7-13.9,38.5-20.8c9.1-4.9,18.3-9.8,27.4-14.7c19.4-10.5,38.7-21,58.1-31.5c9.2-5,18.6-9.7,27.8-14.8
			c2.3-1.3,4.1-1.1,6.2,0.1c14.4,7.9,29.5,14.4,43.9,22.4c2.5,1.4,5.6,1.5,8.6-0.3c22.7-13.4,45.7-26.6,68.3-40.2
			c14.1-8.4,28.5-16.2,42.2-25.3c0.9-0.6,1.9-0.9,2.9-1.2c5.3-1.8,6.7-5.8,7-11.1c0.7-10.7,1.8-21.3,2.8-31.9
			c0.9-10.4,1.9-20.7,2.9-31.1c0.9-9.8,1.9-19.6,2.9-29.5c1.2-13.1,2.5-26.2,3.7-39.3c0.9-10,1.9-19.9,2.9-29.9
			c1.2-12.8,2.5-25.7,3.7-38.5c0.8-8.9,1.8-17.7,2.4-26.6c0.5-6-0.4-7-6.5-9c-13.2-4.4-26.5-8.7-39.7-13.1
			c-31.3-10.4-62.5-20.7-93.8-31.1c-4.2-1.4-8.5-2.7-12.7-4.1c-1.8-0.6-3.5-0.7-5.3,0c-19.5,7.3-39,14.5-58.5,21.7
			c-18.5,6.8-37.1,13.6-55.6,20.6c-2.5,0.9-4.4,0.7-6.6-0.1c-24.1-8.1-48.3-16.1-72.4-24.3c-1.4-0.5-2-0.5-3.3,0
			c-34.2,11.5-68.5,22.7-102.7,34.1c-5.2,1.7-10.4,3.5-15.6,5.3c-2.1,0.7-4.1,0.4-6.2-0.4c-16.8-6.6-33.6-13.1-50.3-19.7
			c-9.1-3.6-18.3-7-27.4-10.7c-2.4-1-4.5-0.8-7,0c-21,6.7-42,13.1-63,19.7c-41.9,13.1-83.8,26.2-125.7,39.3
			c-10,3.1-19.9,6.4-29.9,9.3c-2.8,0.8-5,3.2-8.4,3.1c0.9,7.7,1.8,15.4,2.7,23.1c1.5,12.8,3,25.7,4.5,38.5
			c1.1,9.6,2.1,19.1,3.3,28.7c1.3,10.4,2.8,20.7,4.1,31.1c1.3,10.9,2.4,21.8,3.7,32.7c1.7,15,3.5,30,5.3,45
			c1.8,14.7,3.8,29.5,5.7,44.2c0.1,0.8,0,1.6,0,2.5c0.1,4.1,1.4,6.9,5.2,9.6c49.3,33.4,98.3,67.2,147.8,100.2
			c3.7,2.5,7.2,5.4,11.1,7.7c0.7,0.4,1.4,1.4,2.5,0.4"/>
		<path fill="none" stroke="#000000" stroke-width="2" stroke-linecap="round" stroke-linejoin="round" stroke-miterlimit="10" d="
			M31,173.5c3.9,4,9.2,5.9,14,8.5c24.1,12.7,48.1,25.5,72,38.6c14.2,7.8,28.6,15,43,22.6c13.1,6.9,26.2,13.9,39.3,20.8
			c2,1,2.8,2.2,2.9,4.5c0.9,12.8,2.1,25.7,3.2,38.5c1.1,12.1,2.3,24.3,3.2,36.4c0.9,11.5,1.6,22.9,2.5,34.4c0.6,8.6,1.3,17.2,2,25.8
			c0.6,7.8,1.4,15.6,2,23.3c0.7,9,1.4,18,2.1,27c0.9,11.7,1.9,23.5,2.9,35.2c0.7,8.2,1.4,16.4,2,24.6c0.7,8.1,1.4,16.1,2,24.2"/>
		<path fill="none" stroke="#000000" stroke-width="2" stroke-linecap="round" stroke-linejoin="round" stroke-miterlimit="10" d="
			M816.6,127.3c-6.3,3.8-13.4,6-20.1,9c-12.9,5.7-25.9,11.2-38.9,16.8c-19.2,8.3-38.5,16.6-57.7,25c-1.9,0.8-4,1.4-5.7,2.5
			c-4,2.8-7.8,1.8-11.9,0.4c-14.8-5.3-29.7-10.4-44.6-15.6c-3.9-1.4-7.5-1.3-11.5,0.3c-34.5,14.1-69,27.9-103.5,41.9
			c-18.7,7.6-37.4,15.4-56.1,22.8c-3.6,1.4-5,3-5,7.1c0.1,86.9,0.1,173.9,0.1,260.8"/>
		<path fill="none" stroke="#000000" stroke-width="2" stroke-linecap="round" stroke-linejoin="round" stroke-miterlimit="10" d="
			M381.4,198.9c0.1,16,0.8,31.9,1,47.9c0.2,11.7,0.3,23.5,0.7,35.2c0.8,25.4,1.1,50.8,1.7,76.1c0.3,12.3,0.5,24.6,0.7,36.8
			c0.4,20.8,1.1,41.6,1.6,62.4"/>
		<path fill="none" stroke="#000000" stroke-width="2" stroke-linecap="round" stroke-linejoin="round" stroke-miterlimit="10" d="
			M688.4,183.8c-0.8,11.3-1.9,22.6-2.4,34c-0.4,9.2-1.2,18.3-1.7,27.4c-0.7,12.2-1.4,24.3-2.4,36.4c-0.9,10.1-1.1,20.2-1.7,30.3
			c-0.7,11.3-1.9,22.6-2.4,34c-0.4,9.3-1.1,18.6-1.7,27.8c-0.7,12.2-1.5,24.3-2.4,36.4c-0.6,9-0.9,18-1.7,27
			c-0.1,1.1,0.2,2.2,0.4,3.3"/>
		<path fill="none" stroke="#000000" stroke-width="2" stroke-linecap="round" stroke-linejoin="round" stroke-miterlimit="10" d="
			M632.8,164.9c-0.8,15.6-1.8,31.1-2.4,46.7c-0.2,6.8-0.6,13.6-0.9,20.5c-0.7,16.9-1.3,33.9-2.4,50.8c-0.4,6.1-0.4,12.3-0.8,18.4
			c-0.9,14.9-1.1,29.7-1.8,44.6c-0.7,14.7-1.9,29.5-2.3,44.2c-0.2,8-1,16-0.9,23.9"/>
		<path fill="none" stroke="#000000" stroke-width="2" stroke-linecap="round" stroke-linejoin="round" stroke-miterlimit="10" d="
			M461.6,232.5c-4.4-3.7-10.1-5-15.2-7.3c-18.7-8.2-37.9-15.4-56.3-24.1c-7.5-3.5-13.5-1.9-20.2,0.7c-17.2,6.5-34.4,13.1-51.6,19.7
			c-16.9,6.5-33.8,13.2-50.8,19.6c-16.9,6.4-33.8,12.6-50.7,18.9c-4.8,1.8-9.6,3.8-14.3,5.7"/>
	</g>
</g>
<path fill="none" stroke="#000000" stroke-width="3" stroke-miterlimit="10" d="M43.1,286.7c-0.6-4.1-1.2-8.1-1.7-12.2
	c-1.7-11.8-3.4-23.6-5-35.5"/>
<path fill="none" stroke="#000000" stroke-width="3" stroke-miterlimit="10" d="M29.3,174c0.5,2.3,2.9,3.6,5.2,4.2
	c2.3,0.6,4.8,1,6.5,2.7c0.4,0.4,0.8,1,1.3,1.4c0.7,0.6,1.7,0.9,2.6,1.2c3,1,5.9,2.3,8.7,3.6c1.2,0.6,2.4,1.1,3.6,1.7
	c1.3,0.6,2.5,1.2,3.7,2c1.1,0.8,2.1,1.7,3.2,2.5c2.5,1.7,5.6,2.3,8.5,3.5c2.8,1.2,5.7,3.3,6.1,6.3c6.1-0.7,12.4,2.2,15.7,7.3
	c2.3,1.1,4.8,1.9,7.4,2.1"/>
<path fill="none" stroke="#000000" stroke-width="3" stroke-miterlimit="10" d="M374.5,201.5c-2.5,1-5,2.1-7.5,3.1
	c-2.9,1.2-5.7,2.4-8.7,3c-1.8,0.4-3.8,0.5-5.3,1.6c-0.9,0.6-1.5,1.3-2.5,1.8c-0.8,0.4-1.8,0.5-2.7,0.7c-5.5,1-10.5,3.8-15.4,6.6"/>
<path fill="none" stroke="#000000" stroke-width="3" stroke-miterlimit="10" d="M383.6,200.3c3.6,3.2,8.4,4.5,13,6.1
	c7,2.5,13.5,6.1,20.3,9.2c3.6,1.6,7.3,3.1,10.9,4.6c3.6,1.5,7.2,2.9,10.7,4.4c2.6,1.1,5.2,2.1,7.8,3.2c4.6,1.9,9.2,3.8,13.8,5.6
	c-3.9-2.1-7.8-4.3-11.7-6.4c-5.5-3-11.5-6.2-17.7-5.8"/>
<path fill="none" stroke="#000000" stroke-width="3" stroke-miterlimit="10" d="M387.7,201.7c1.1-0.3,2.4,0.2,2.8,1.3
	c0.2,0,0.5-0.1,0.7,0.1s0.2,0.5,0,0.6"/>
<path fill="none" stroke="#000000" stroke-width="3" stroke-miterlimit="10" d="M416.3,213.6c2.1,0.1,4.5,0.5,5.5,2.3
	c0.2,0.3,0.3,0.6,0.5,0.9c0.4,0.5,1.1,0.6,1.7,0.8c1.2,0.3,2.4,0.5,3.6,0.8c0.8,0.2,1.8,0.5,2,1.4"/>
<path fill="none" stroke="#000000" stroke-width="3" stroke-miterlimit="10" d="M465.6,232.7c4.6-1.4,8.3-5,12.7-6.9
	c1-0.4,1.9-0.7,2.9-1c0.6-0.2,1.2-0.4,1.8-0.6c2.3-0.7,4.5-1.5,6.8-2.2"/>
</svg>
